<svg xmlns="http://www.w3.org/2000/svg" viewBox="0 0 1200 630" fill="none">
  <!-- Background -->
  <rect width="1200" height="630" fill="#004182"/>

  <!-- Subtle diagonal lines -->
  <g opacity="0.03">
    <line x1="0" y1="0" x2="1200" y2="630" stroke="white" stroke-width="1"/>
    <line x1="200" y1="0" x2="1200" y2="500" stroke="white" stroke-width="1"/>
    <line x1="0" y1="130" x2="1200" y2="630" stroke="white" stroke-width="1"/>
    <line x1="0" y1="260" x2="1000" y2="630" stroke="white" stroke-width="1"/>
  </g>

  <!-- Orange accent line at top -->
  <rect x="0" y="0" width="1200" height="6" fill="#E16B00"/>

  <!-- CENTERED ROW: Flame icon + ProfileRoaster.in -->
  <!-- Flame icon — symmetric, left of text, centered at y=280 -->
  <g transform="translate(340, 230)">
    <!-- Outer flame -->
    <path d="M40 0 C40 0 35 9 32.5 14 C27 23 19 31 19 42 C19 53 27 62 40 62 C53 62 61 53 61 42 C61 31 53 23 47.5 14 C45 9 40 0 40 0Z" fill="#E16B00"/>
    <!-- Inner flame -->
    <path d="M40 12 C40 12 37 18 35.5 21 C31 28 26 34 26 41 C26 49 32 55 40 55 C48 55 54 49 54 41 C54 34 49 28 44.5 21 C43 18 40 12 40 12Z" fill="#F59E0B"/>
    <!-- Core flame -->
    <path d="M40 22 C40 22 38 26 37 28 C34.5 32 32 36 32 40 C32 44.5 35.5 48 40 48 C44.5 48 48 44.5 48 40 C48 36 45.5 32 43 28 C42 26 40 22 40 22Z" fill="#FCD34D"/>
  </g>

  <!-- Brand name — right of flame -->
  <text x="440" y="278" font-family="Inter, -apple-system, Helvetica, sans-serif" font-size="62" font-weight="600" letter-spacing="-1.5">
    <tspan fill="white">Profile</tspan><tspan fill="#E16B00" font-weight="800">Roaster</tspan><tspan fill="rgba(255,255,255,0.35)" font-weight="400">.in</tspan>
  </text>

  <!-- Tagline centered -->
  <text x="600" y="340" font-family="Inter, -apple-system, Helvetica, sans-serif" font-size="20" font-weight="400" fill="rgba(255,255,255,0.45)" text-anchor="middle" letter-spacing="5">AI-POWERED LINKEDIN PROFILE ANALYSIS</text>

  <!-- Divider line -->
  <rect x="540" y="370" width="120" height="2" rx="1" fill="rgba(255,255,255,0.1)"/>

  <!-- URL below -->
  <text x="600" y="410" font-family="Inter, Helvetica, sans-serif" font-size="16" font-weight="500" fill="rgba(255,255,255,0.2)" text-anchor="middle">profileroaster.in</text>

  <!-- Bottom bar -->
  <rect x="0" y="580" width="1200" height="50" fill="rgba(0,0,0,0.2)"/>

  <!-- Bottom stats -->
  <text x="200" y="612" font-family="Inter, Helvetica, sans-serif" font-size="15" font-weight="700" fill="rgba(255,255,255,0.65)" text-anchor="middle">500+ Profiles Improved</text>
  <text x="400" y="612" font-family="Inter, Helvetica, sans-serif" font-size="15" font-weight="400" fill="rgba(255,255,255,0.2)" text-anchor="middle">|</text>
  <text x="600" y="612" font-family="Inter, Helvetica, sans-serif" font-size="15" font-weight="700" fill="rgba(255,255,255,0.65)" text-anchor="middle">+42 Avg Score Improvement</text>
  <text x="800" y="612" font-family="Inter, Helvetica, sans-serif" font-size="15" font-weight="400" fill="rgba(255,255,255,0.2)" text-anchor="middle">|</text>
  <text x="1000" y="612" font-family="Inter, Helvetica, sans-serif" font-size="15" font-weight="700" fill="rgba(255,255,255,0.65)" text-anchor="middle">Results in 60 Seconds</text>

  <!-- Orange bottom accent -->
  <rect x="0" y="624" width="1200" height="6" fill="#E16B00"/>
</svg>
