<svg xmlns="http://www.w3.org/2000/svg" viewBox="0 0 32 32" fill="none">
  <!-- Outer flame -->
  <path d="M16 30C9 30 4 25 4 18c0-5 2.5-9.5 6-13 1.2-1.2 2.5-2.5 3.5-4 1 1.5 2.3 2.8 3.5 4 3.5 3.5 6 8 6 13 0 7-5 12-12 12h5z" fill="#E16B00"/>
  <!-- Inner flame -->
  <path d="M16 26c-3.5 0-7-3-7-7 0-3 1.5-5.5 3.5-8 .7-.7 1.3-1.5 1.8-2.5.5 1 1.1 1.8 1.8 2.5 2 2.5 3.5 5 3.5 8 0 4-3.5 7-7 7h3.5z" fill="#F59E0B"/>
  <!-- Core -->
  <path d="M16 22c-1.8 0-3.5-1.8-3.5-4 0-1.8 1-3 2.2-4.3.3-.3.7-.8.9-1.2.2.4.6.9.9 1.2 1.2 1.3 2.2 2.5 2.2 4.3 0 2.2-1.7 4-3.5 4h.8z" fill="#FCD34D"/>
</svg>
