<svg xmlns="http://www.w3.org/2000/svg" viewBox="0 0 32 32" fill="none">
  <!-- Outer flame: symmetric around x=16 -->
  <path d="M16 2 C16 2 13.5 6 12 9 C9 14 5 18 5 23 C5 28 10 31 16 31 C22 31 27 28 27 23 C27 18 23 14 20 9 C18.5 6 16 2 16 2Z" fill="#E16B00"/>
  <!-- Inner flame -->
  <path d="M16 8 C16 8 14.2 11 13 13.5 C10.5 17 8 20 8 23.5 C8 27 11.5 29 16 29 C20.5 29 24 27 24 23.5 C24 20 21.5 17 19 13.5 C17.8 11 16 8 16 8Z" fill="#F59E0B"/>
  <!-- Core flame -->
  <path d="M16 14 C16 14 14.8 16 14 17.5 C12.5 20 11 22 11 24 C11 26.5 13.2 28 16 28 C18.8 28 21 26.5 21 24 C21 22 19.5 20 18 17.5 C17.2 16 16 14 16 14Z" fill="#FCD34D"/>
</svg>
