<svg xmlns="http://www.w3.org/2000/svg" viewBox="0 0 240 48" fill="none">
  <!-- Flame icon -->
  <g transform="translate(0, 4)">
    <!-- Outer flame -->
    <path d="M16 40C8 40 2 34 2 26c0-6 3-11 7-15 1.5-1.5 3-3 4-5 1 2 2.5 3.5 4 5 4 4 7 9 7 15 0 8-6 14-14 14h6z" fill="#E16B00"/>
    <!-- Inner flame -->
    <path d="M16 36c-4 0-8-3.5-8-8 0-3.5 2-6.5 4-9 .8-.8 1.5-1.8 2-3 .5 1.2 1.2 2.2 2 3 2 2.5 4 5.5 4 9 0 4.5-4 8-8 8h4z" fill="#F59E0B"/>
    <!-- Core -->
    <path d="M16 32c-2 0-4-2-4-4.5 0-2 1-3.5 2.5-5 .4-.4.8-1 1-1.5.2.5.6 1.1 1 1.5 1.5 1.5 2.5 3 2.5 5 0 2.5-2 4.5-4 4.5h1z" fill="#FCD34D"/>
  </g>
  <!-- Text: Profile -->
  <text x="44" y="34" font-family="Inter, Helvetica, Arial, sans-serif" font-size="26" font-weight="600" fill="#004182">Profile</text>
  <!-- Text: Roaster -->
  <text x="132" y="34" font-family="Inter, Helvetica, Arial, sans-serif" font-size="26" font-weight="800" fill="#E16B00">Roaster</text>
</svg>
