<svg xmlns="http://www.w3.org/2000/svg" viewBox="0 0 340 56" fill="none">
  <!-- Flame icon -->
  <g transform="translate(4, 4)">
    <path d="M20 46C11 46 4 39 4 30c0-7 3.5-13 8-17 1.5-1.5 3-3.5 4.5-5.5 1.5 2 3 4 4.5 5.5 4.5 4 8 10 8 17 0 9-7 16-16 16h7z" fill="#E16B00"/>
    <path d="M20 41c-5 0-9-4-9-9 0-4 2-7.5 4.5-10.5 1-1 1.8-2.2 2.5-3.5.7 1.3 1.5 2.5 2.5 3.5 2.5 3 4.5 6.5 4.5 10.5 0 5-4 9-9 9h4z" fill="#F59E0B"/>
    <path d="M20 36c-2.5 0-5-2.2-5-5.5 0-2.5 1.2-4.2 3-6 .5-.5 1-.9 1.3-1.5.3.6.8 1 1.3 1.5 1.8 1.8 3 3.5 3 6 0 3.3-2.5 5.5-5 5.5h1.4z" fill="#FCD34D"/>
  </g>
  <!-- Text: profileRoaster.in -->
  <text x="52" y="38" font-family="Inter, -apple-system, Helvetica, Arial, sans-serif" font-size="26" font-weight="600" fill="#004182" letter-spacing="-0.3">profile<tspan font-weight="800" fill="#E16B00">Roaster</tspan><tspan font-weight="400" fill="#9CA3AF">.in</tspan></text>
</svg>
