<svg xmlns="http://www.w3.org/2000/svg" viewBox="0 0 1200 630" fill="none">
  <rect width="1200" height="630" fill="#004182"/>
  <rect x="0" y="0" width="1200" height="5" fill="#E16B00"/>

  <!-- Flame centered -->
  <g transform="translate(556, 100)">
    <path d="M44 100C20 100 0 80 0 56c0-16 7-28 17-37 4-4 7-8 10-12 3 4 6 8 10 12 10 9 17 21 17 37 0 24-20 44-44 44h34z" fill="#E16B00"/>
    <path d="M44 88c-11 0-20-9-20-20 0-9 4.5-16.5 10-23 2-2 4-5 5.5-7.5 1.5 2.5 3.5 5.5 5.5 7.5 5.5 6.5 10 14 10 23 0 11-9 20-20 20h9z" fill="#F59E0B"/>
    <path d="M44 76c-5.5 0-11-5-11-11 0-6 3-9 7-13 1-1 2-2.5 3-4 1 1.5 2 3 3 4 4 4 7 7 7 13 0 6-5.5 11-11 11h2z" fill="#FCD34D"/>
  </g>

  <!-- Brand name -->
  <text x="600" y="290" font-family="Inter, Helvetica, sans-serif" font-size="54" font-weight="600" text-anchor="middle" letter-spacing="-1">
    <tspan fill="white">Profile</tspan><tspan fill="#E16B00" font-weight="800">Roaster</tspan><tspan fill="rgba(255,255,255,0.35)" font-weight="400">.in</tspan>
  </text>

  <text x="600" y="335" font-family="Inter, Helvetica, sans-serif" font-size="19" font-weight="400" fill="rgba(255,255,255,0.45)" text-anchor="middle" letter-spacing="4">AI-POWERED LINKEDIN PROFILE ANALYSIS</text>

  <!-- CTA -->
  <rect x="430" y="380" width="340" height="50" rx="25" fill="#E16B00"/>
  <text x="600" y="412" font-family="Inter, Helvetica, sans-serif" font-size="17" font-weight="700" fill="white" text-anchor="middle">Get Your Score Free</text>

  <!-- Bottom -->
  <text x="600" y="520" font-family="Inter, Helvetica, sans-serif" font-size="14" font-weight="500" fill="rgba(255,255,255,0.2)" text-anchor="middle">profileroaster.in</text>

  <rect x="0" y="624" width="1200" height="6" fill="#E16B00"/>
</svg>
