<svg xmlns="http://www.w3.org/2000/svg" viewBox="0 0 1200 630" fill="none">
  <rect width="1200" height="630" fill="#004182"/>
  <rect x="0" y="0" width="1200" height="5" fill="#E16B00"/>

  <!-- Flame -->
  <g transform="translate(540, 120)">
    <path d="M60 138C27 138 0 111 0 78c0-21 9-39 24-51 5-5 9-10 14-17 5 7 9 12 14 17 15 12 24 30 24 51 0 33-27 60-60 60h44z" fill="#E16B00"/>
    <path d="M60 123c-15 0-27-12-27-27 0-12 6-22.5 14-31.5 3-3 6-6 7.5-10.5 1.5 4.5 4.5 7.5 7.5 10.5 8 9 14 19.5 14 31.5 0 15-12 27-27 27h12z" fill="#F59E0B"/>
    <path d="M60 108c-7.5 0-15-6-15-15 0-7.5 4.5-12 9-18 1.5-1.5 3-3 4-5 1 2 2.5 3.5 4 5 4.5 6 9 10.5 9 18 0 9-7.5 15-15 15h4z" fill="#FCD34D"/>
  </g>

  <!-- Brand name -->
  <text x="600" y="330" font-family="Inter, Helvetica, sans-serif" font-size="56" font-weight="600" text-anchor="middle" letter-spacing="-1">
    <tspan fill="white">profile</tspan><tspan fill="#E16B00" font-weight="800">Roaster</tspan><tspan fill="rgba(255,255,255,0.4)" font-weight="400">.in</tspan>
  </text>

  <text x="600" y="375" font-family="Inter, Helvetica, sans-serif" font-size="20" font-weight="400" fill="rgba(255,255,255,0.5)" text-anchor="middle" letter-spacing="3">AI-POWERED LINKEDIN PROFILE ANALYSIS</text>

  <!-- CTA -->
  <rect x="420" y="410" width="360" height="52" rx="26" fill="#E16B00"/>
  <text x="600" y="443" font-family="Inter, Helvetica, sans-serif" font-size="18" font-weight="700" fill="white" text-anchor="middle">Get Your Score Free</text>

  <!-- Bottom -->
  <text x="600" y="540" font-family="Inter, Helvetica, sans-serif" font-size="15" font-weight="600" fill="rgba(255,255,255,0.25)" text-anchor="middle">profileroaster.in</text>

  <rect x="0" y="624" width="1200" height="6" fill="#E16B00"/>
</svg>
