<svg xmlns="http://www.w3.org/2000/svg" viewBox="0 0 1200 630" fill="none">
  <rect width="1200" height="630" fill="#004182"/>
  <rect x="0" y="0" width="1200" height="5" fill="#E16B00"/>

  <!-- Flame — symmetric around x=600 -->
  <path d="M600 110 C600 110 590 124 584 132 C572 148 556 164 556 182 C556 198 572 210 600 210 C628 210 644 198 644 182 C644 164 628 148 616 132 C610 124 600 110 600 110Z" fill="#E16B00"/>
  <path d="M600 130 C600 130 593 140 589 146 C580 158 572 170 572 183 C572 195 583 205 600 205 C617 205 628 195 628 183 C628 170 620 158 611 146 C607 140 600 130 600 130Z" fill="#F59E0B"/>
  <path d="M600 148 C600 148 595 155 593 159 C588 166 585 174 585 181 C585 190 591 198 600 198 C609 198 615 190 615 181 C615 174 612 166 607 159 C605 155 600 148 600 148Z" fill="#FCD34D"/>

  <!-- Brand name -->
  <text x="600" y="290" font-family="Inter, Helvetica, sans-serif" font-size="54" font-weight="600" text-anchor="middle" letter-spacing="-1">
    <tspan fill="white">Profile</tspan><tspan fill="#E16B00" font-weight="800">Roaster</tspan><tspan fill="rgba(255,255,255,0.35)" font-weight="400">.in</tspan>
  </text>

  <text x="600" y="335" font-family="Inter, Helvetica, sans-serif" font-size="19" font-weight="400" fill="rgba(255,255,255,0.45)" text-anchor="middle" letter-spacing="4">AI-POWERED LINKEDIN PROFILE ANALYSIS</text>

  <!-- CTA -->
  <rect x="430" y="380" width="340" height="50" rx="25" fill="#E16B00"/>
  <text x="600" y="412" font-family="Inter, Helvetica, sans-serif" font-size="17" font-weight="700" fill="white" text-anchor="middle">Get Your Score Free</text>

  <!-- Bottom -->
  <text x="600" y="520" font-family="Inter, Helvetica, sans-serif" font-size="14" font-weight="500" fill="rgba(255,255,255,0.2)" text-anchor="middle">profileroaster.in</text>
  <rect x="0" y="624" width="1200" height="6" fill="#E16B00"/>
</svg>
